# xmcd
#
# Track frame offsets:
#	150
#	12939
#	22989
#	36552
#	47851
#	64002
#	71753
#	85034
#	95381
#	107353
#
# Disc length: 1748 seconds
#
# Revision: 0
# Processed by: cddbd v1.5.2PL0 Copyright (c) Steve Scherf et al.
# Submitted via: EZCDAudioConverter 2.1.7.1
#
DISCID=7906d20a
DTITLE=Arthur Verocai - Arthur Verocai (1972)
DYEAR=1900
DGENRE=
TTITLE0=Caboclo
TTITLE1=Pelas Sombras
TTITLE2=Sylvia
TTITLE3=Presente Grego
TTITLE4=Dedicada A Ela
TTITLE5=Seriado
TTITLE6=Na Boca Do Sol
TTITLE7=Velho Parente
TTITLE8=O Mapa
TTITLE9=Karina (Domingo No Grajau)
EXTD=
EXTT0=
EXTT1=
EXTT2=
EXTT3=
EXTT4=
EXTT5=
EXTT6=
EXTT7=
EXTT8=
EXTT9=
PLAYORDER=
